<svg width="2899" height="933" xmlns="http://www.w3.org/2000/svg" xmlns:xlink="http://www.w3.org/1999/xlink" xml:space="preserve" overflow="hidden"><defs><clipPath id="clip0"><rect x="482" y="789" width="2899" height="933"/></clipPath></defs><g clip-path="url(#clip0)" transform="translate(-482 -789)"><path d="M484.5 1337C484.5 1126.3 655.527 955.5 866.5 955.5 1077.47 955.5 1248.5 1126.3 1248.5 1337 1248.5 1547.7 1077.47 1718.5 866.5 1718.5 655.527 1718.5 484.5 1547.7 484.5 1337Z" stroke="#000000" stroke-width="4.58333" stroke-miterlimit="8" fill="none" fill-rule="evenodd"/><path d="M1928.5 1337C1928.5 1126.3 2099.53 955.5 2310.5 955.5 2521.47 955.5 2692.5 1126.3 2692.5 1337 2692.5 1547.7 2521.47 1718.5 2310.5 1718.5 2099.53 1718.5 1928.5 1547.7 1928.5 1337Z" stroke="#000000" stroke-width="4.58333" stroke-miterlimit="8" fill="none" fill-rule="evenodd"/><path d="M1.21564e-06-2.29167 639.089-2.29133 639.089 2.29201-1.21564e-06 2.29167ZM634.505-22.9163 680.338 0.000360892 634.505 22.917Z" transform="matrix(1 0 0 -1 1248.5 1337.5)"/><path d="M2692.5 1335.21 3292.7 1335.21 3292.7 1339.79 2692.5 1339.79ZM3288.12 1314.58 3333.95 1337.5 3288.12 1360.42Z"/><path d="M753.277 1316.88C750.494 1316.88 747.995 1318 745.779 1320.24 743.564 1322.48 741.835 1325.49 740.592 1329.26 739.349 1333.03 738.728 1336.79 738.728 1340.55 738.728 1343.35 739.113 1345.46 739.883 1346.85 740.653 1348.24 741.943 1348.93 743.753 1348.93 745.536 1348.93 747.286 1348.16 749.001 1346.62 750.717 1345.08 752.487 1342.89 754.31 1340.04 756.134 1337.19 757.424 1333.9 758.181 1330.17L758.546 1328.43C758.789 1327.32 758.951 1326.36 759.032 1325.55 759.113 1324.74 759.154 1323.86 759.154 1322.92 759.154 1320.84 758.708 1319.31 757.816 1318.34 756.924 1317.36 755.411 1316.88 753.277 1316.88ZM752.466 1313.68C754.223 1313.68 755.864 1313.87 757.391 1314.26 758.917 1314.65 760.491 1315.35 762.112 1316.35L765.841 1313.68 768.434 1314.32 762.477 1340.02C761.882 1342.58 761.585 1344.58 761.585 1346.02 761.585 1347.1 761.761 1347.88 762.112 1348.37 762.463 1348.85 763.017 1349.1 763.774 1349.1 764.584 1349.1 765.449 1348.77 766.367 1348.1 767.286 1347.44 768.583 1346.18 770.258 1344.31L772.568 1346.58C770.136 1349.18 768.063 1351.02 766.347 1352.12 764.631 1353.21 762.774 1353.76 760.775 1353.76 759.099 1353.76 757.762 1353.2 756.762 1352.1 755.763 1350.99 755.263 1349.52 755.263 1347.68 755.263 1346.19 755.574 1344.61 756.195 1342.94L755.668 1342.77C753.074 1346.56 750.616 1349.33 748.292 1351.08 745.969 1352.84 743.51 1353.72 740.916 1353.72 737.944 1353.72 735.641 1352.6 734.006 1350.35 732.372 1348.11 731.554 1344.96 731.554 1340.91 731.554 1336.26 732.466 1331.8 734.29 1327.52 736.114 1323.23 738.62 1319.86 741.808 1317.38 744.996 1314.91 748.549 1313.68 752.466 1313.68Z" fill-rule="evenodd"/><text fill="#000000" fill-opacity="0" font-family="Arial,Arial_MSFontService,sans-serif" font-size="40.0815" x="731.554" y="1348.75">ğ‘</text><path d="M791.335 1333.35 793.152 1333.35C793.112 1334.45 793.083 1335.42 793.063 1336.29 793.043 1337.15 793.028 1337.99 793.018 1338.8 793.008 1339.62 793.003 1340.42 793.003 1341.22L793.003 1363.85C793.003 1364.47 793.023 1365 793.063 1365.45 793.102 1365.89 793.167 1366.27 793.256 1366.58 793.346 1366.89 793.465 1367.15 793.614 1367.37 793.763 1367.59 793.936 1367.78 794.135 1367.93 794.373 1368.17 794.691 1368.36 795.088 1368.49 795.485 1368.61 795.992 1368.72 796.607 1368.81 797.223 1368.9 797.962 1368.97 798.826 1369.02 799.69 1369.07 800.727 1369.11 801.939 1369.13L801.939 1371.72 778.319 1371.72 778.319 1369.13C779.491 1369.09 780.483 1369.04 781.298 1368.99 782.112 1368.94 782.807 1368.87 783.383 1368.78 783.958 1368.69 784.42 1368.59 784.768 1368.49 785.115 1368.38 785.418 1368.24 785.676 1368.08 785.954 1367.9 786.192 1367.71 786.391 1367.5 786.589 1367.29 786.748 1367.03 786.867 1366.71 786.987 1366.4 787.081 1366.01 787.15 1365.55 787.22 1365.09 787.255 1364.53 787.255 1363.85L787.255 1342.5C787.255 1341.72 787.106 1341.18 786.808 1340.86 786.51 1340.54 786.083 1340.38 785.527 1340.38 784.912 1340.38 783.998 1340.7 782.787 1341.34 781.576 1341.97 780.007 1342.91 778.081 1344.17 777.823 1343.71 777.584 1343.25 777.366 1342.8 777.148 1342.34 776.919 1341.87 776.681 1341.4 779.143 1340.05 781.581 1338.7 783.993 1337.36 786.406 1336.02 788.853 1334.68 791.335 1333.35Z" fill-rule="evenodd"/><text fill="#000000" fill-opacity="0" font-family="Arial,Arial_MSFontService,sans-serif" font-size="38.3633" x="776.681" y="1366.92">1</text><path d="M792.812 1285.46C791.422 1285.46 790.26 1285.82 789.327 1286.54 788.393 1287.27 787.654 1288.33 787.108 1289.73 786.562 1291.13 786.174 1292.84 785.946 1294.85 785.718 1296.87 785.604 1299.16 785.604 1301.72 785.604 1304.68 785.748 1307.24 786.035 1309.39 786.323 1311.54 786.77 1313.32 787.376 1314.71 787.981 1316.1 788.741 1317.12 789.654 1317.77 790.568 1318.43 791.66 1318.76 792.931 1318.76 794.122 1318.76 795.165 1318.45 796.058 1317.83 796.952 1317.22 797.691 1316.26 798.277 1314.96 798.863 1313.66 799.305 1312.01 799.603 1310.02 799.9 1308.02 800.049 1305.66 800.049 1302.94 800.049 1299.88 799.886 1297.25 799.558 1295.05 799.23 1292.84 798.769 1291.03 798.173 1289.61 797.577 1288.19 796.828 1287.15 795.924 1286.47 795.021 1285.79 793.983 1285.46 792.812 1285.46ZM792.931 1282.57C795.294 1282.57 797.314 1283.01 798.992 1283.89 800.67 1284.78 802.04 1286.04 803.102 1287.68 804.165 1289.31 804.944 1291.31 805.44 1293.68 805.937 1296.04 806.185 1298.71 806.185 1301.69 806.185 1308.3 805.014 1313.3 802.67 1316.69 800.327 1320.07 796.932 1321.77 792.484 1321.77 788.076 1321.77 784.799 1320.17 782.655 1316.97 780.51 1313.77 779.438 1308.93 779.438 1302.43 779.438 1299.04 779.771 1296.1 780.436 1293.62 781.101 1291.14 782.034 1289.08 783.236 1287.44 784.437 1285.8 785.862 1284.58 787.51 1283.77 789.158 1282.97 790.965 1282.57 792.931 1282.57Z" fill-rule="evenodd"/><text fill="#000000" fill-opacity="0" font-family="Arial,Arial_MSFontService,sans-serif" font-size="39.1973" x="779.438" y="1316.87">0</text><path d="M842.467 1335.11 892.396 1335.11 892.396 1340.5 842.467 1340.5ZM842.467 1318.3 892.396 1318.3 892.396 1323.69 842.467 1323.69Z" fill-rule="evenodd"/><text fill="#000000" fill-opacity="0" font-family="Arial,Arial_MSFontService,sans-serif" font-size="22.209" x="842.467" y="1337.73">=</text><path d="M937.228 1313.68C938.066 1313.68 938.802 1313.77 939.437 1313.96 940.072 1314.15 940.632 1314.44 941.119 1314.83 941.605 1315.22 942.037 1315.73 942.416 1316.35 942.794 1316.97 943.159 1317.82 943.51 1318.88 943.861 1319.95 944.192 1321.27 944.503 1322.85 944.814 1324.44 945.09 1326.08 945.334 1327.78L945.739 1327.78C948.333 1324.13 950.298 1321.46 951.636 1319.77 952.973 1318.09 954.101 1316.83 955.02 1316.01 955.938 1315.18 956.823 1314.6 957.674 1314.26 958.525 1313.93 959.653 1313.76 961.058 1313.76 962.328 1313.76 963.368 1313.92 964.179 1314.24L962.558 1321.58 959.721 1321.58C959.559 1320.44 959.086 1319.88 958.302 1319.88 958.059 1319.88 957.803 1319.92 957.532 1320 957.262 1320.08 956.931 1320.25 956.539 1320.52 956.148 1320.79 955.574 1321.32 954.817 1322.11 954.06 1322.89 953.209 1323.85 952.264 1324.98 951.318 1326.12 950.346 1327.31 949.346 1328.55L946.59 1331.99C947.076 1334.59 947.536 1336.83 947.968 1338.72 948.4 1340.61 948.785 1342.19 949.123 1343.44 949.461 1344.7 949.758 1345.69 950.015 1346.42 950.271 1347.15 950.548 1347.7 950.845 1348.06 951.143 1348.43 951.446 1348.68 951.757 1348.83 952.068 1348.98 952.426 1349.06 952.831 1349.06 953.561 1349.06 954.27 1348.77 954.959 1348.2 955.648 1347.64 956.641 1346.35 957.938 1344.35L960.572 1346.1C958.681 1348.91 956.972 1350.89 955.445 1352.03 953.919 1353.18 952.102 1353.76 949.994 1353.76 948.832 1353.76 947.846 1353.55 947.036 1353.13 946.225 1352.71 945.523 1352.04 944.928 1351.12 944.334 1350.2 943.807 1348.77 943.348 1346.83 942.51 1343.37 941.997 1340.72 941.808 1338.88L941.402 1338.88C938.539 1342.91 936.411 1345.8 935.019 1347.56 933.628 1349.31 932.48 1350.61 931.575 1351.45 930.669 1352.28 929.791 1352.87 928.94 1353.21 928.089 1353.55 926.961 1353.72 925.556 1353.72 924.286 1353.72 923.246 1353.55 922.436 1353.23L924.057 1345.89 926.894 1345.89C927.056 1347.03 927.529 1347.6 928.312 1347.6 928.69 1347.6 929.089 1347.5 929.508 1347.29 929.926 1347.09 930.528 1346.6 931.311 1345.83 932.095 1345.06 933.175 1343.85 934.553 1342.21 935.931 1340.56 937.931 1338.09 940.551 1334.79 940.146 1332.66 939.727 1330.6 939.295 1328.63 938.863 1326.66 938.417 1324.82 937.958 1323.12 937.498 1321.42 937.12 1320.3 936.823 1319.77 936.526 1319.25 936.208 1318.88 935.87 1318.68 935.533 1318.48 935.107 1318.38 934.594 1318.38 934.026 1318.38 933.513 1318.5 933.054 1318.76 932.595 1319.02 932.095 1319.46 931.554 1320.1 931.014 1320.73 930.298 1321.73 929.406 1323.08L926.772 1321.34C928.474 1318.77 930.109 1316.85 931.676 1315.58 933.243 1314.31 935.094 1313.68 937.228 1313.68Z" fill-rule="evenodd"/><text fill="#000000" fill-opacity="0" font-family="Arial,Arial_MSFontService,sans-serif" font-size="40.0815" x="922.436" y="1348.75">ğ‘¥</text><path d="M978.829 1339.84 980.289 1339.84 975.88 1359.68C975.602 1360.85 975.409 1361.78 975.3 1362.48 975.19 1363.17 975.136 1363.8 975.136 1364.35 975.136 1365.11 975.29 1365.65 975.597 1365.99 975.905 1366.33 976.367 1366.5 976.982 1366.5 977.34 1366.5 977.697 1366.43 978.055 1366.29 978.412 1366.15 978.794 1365.93 979.201 1365.63 979.609 1365.34 980.055 1364.95 980.542 1364.49 981.028 1364.02 981.569 1363.46 982.165 1362.8L984.19 1364.77C983.158 1365.82 982.22 1366.71 981.376 1367.44 980.532 1368.16 979.733 1368.75 978.978 1369.21 978.224 1369.66 977.484 1369.99 976.759 1370.19 976.034 1370.39 975.265 1370.49 974.451 1370.49 973.696 1370.49 973.016 1370.35 972.41 1370.07 971.805 1369.79 971.284 1369.41 970.847 1368.92 970.41 1368.44 970.072 1367.86 969.834 1367.18 969.596 1366.51 969.477 1365.76 969.477 1364.95 969.477 1364.29 969.556 1363.48 969.715 1362.51 969.874 1361.53 970.077 1360.48 970.326 1359.33 970.574 1358.19 970.847 1357 971.145 1355.74 971.442 1354.49 971.735 1353.25 972.023 1352.02 972.311 1350.79 972.569 1349.6 972.798 1348.46 973.026 1347.32 973.19 1346.28 973.289 1345.35 973.329 1345.19 973.349 1345.04 973.349 1344.89 973.349 1344.74 973.349 1344.61 973.349 1344.49 973.309 1343.71 973.036 1343.15 972.53 1342.79 972.023 1342.43 971.125 1342.23 969.834 1342.19L970.191 1340.17ZM977.102 1327.84 983.059 1327.84 981.599 1334.24 975.702 1334.24Z" fill-rule="evenodd"/><text fill="#000000" fill-opacity="0" font-family="Arial,Arial_MSFontService,sans-serif" font-size="42.6523" x="969.477" y="1365.16">ğ‘–</text><path d="M1495.52 1243.69 1506.14 1243.69 1508.57 1275.67C1512.38 1269.45 1515.13 1264.73 1516.82 1261.48 1518.51 1258.24 1519.76 1255.44 1520.57 1253.07 1521.38 1250.71 1522 1248.24 1522.43 1245.68L1522.88 1243.69 1528.71 1243.69 1531.67 1275.71C1535.89 1269.71 1539.09 1264.48 1541.3 1260 1543.5 1255.53 1544.6 1251.89 1544.6 1249.08 1544.6 1247.81 1544.33 1246.95 1543.79 1246.49 1543.25 1246.03 1542.33 1245.76 1541.03 1245.68L1541.44 1243.69 1551.89 1243.69 1552.99 1245.72C1552.04 1248.12 1551.29 1249.97 1550.72 1251.27 1550.15 1252.57 1549.41 1254.13 1548.49 1255.95 1547.57 1257.77 1546.6 1259.59 1545.57 1261.4 1544.54 1263.21 1543.34 1265.2 1541.94 1267.38 1540.55 1269.55 1538.99 1271.92 1537.26 1274.47 1535.53 1277.03 1533.49 1279.9 1531.14 1283.08L1526.32 1283.08 1524.66 1266.14C1524.52 1264.82 1524.38 1263.09 1524.23 1260.96 1524.08 1258.82 1523.98 1257.17 1523.93 1256.01L1523.48 1255.97C1522.02 1259.56 1520.04 1263.56 1517.53 1267.97 1515.01 1272.37 1511.91 1277.41 1508.2 1283.08L1502.77 1283.08 1499.69 1252.57C1499.53 1251 1499.33 1249.73 1499.09 1248.76 1498.84 1247.78 1498.44 1247.06 1497.87 1246.57 1497.3 1246.08 1496.37 1245.79 1495.07 1245.68Z" fill-rule="evenodd"/><text fill="#000000" fill-opacity="0" font-family="Arial,Arial_MSFontService,sans-serif" font-size="39.3926" x="1495.07" y="1278.16">ğ‘¤</text><path d="M1604.03 1262.38 1605.84 1262.38C1605.8 1263.47 1605.77 1264.45 1605.75 1265.32 1605.73 1266.18 1605.72 1267.02 1605.71 1267.83 1605.7 1268.65 1605.7 1269.45 1605.7 1270.25L1605.7 1292.88C1605.7 1293.5 1605.71 1294.03 1605.75 1294.48 1605.79 1294.92 1605.86 1295.3 1605.95 1295.61 1606.04 1295.92 1606.16 1296.18 1606.31 1296.4 1606.45 1296.62 1606.63 1296.8 1606.83 1296.96 1607.07 1297.2 1607.38 1297.39 1607.78 1297.51 1608.18 1297.64 1608.68 1297.75 1609.3 1297.84 1609.91 1297.93 1610.65 1298 1611.52 1298.05 1612.38 1298.1 1613.42 1298.13 1614.63 1298.15L1614.63 1300.75 1591.01 1300.75 1591.01 1298.15C1592.18 1298.11 1593.18 1298.07 1593.99 1298.02 1594.8 1297.97 1595.5 1297.9 1596.07 1297.81 1596.65 1297.72 1597.11 1297.62 1597.46 1297.51 1597.81 1297.41 1598.11 1297.27 1598.37 1297.11 1598.65 1296.93 1598.88 1296.74 1599.08 1296.53 1599.28 1296.32 1599.44 1296.06 1599.56 1295.74 1599.68 1295.42 1599.77 1295.04 1599.84 1294.58 1599.91 1294.12 1599.95 1293.56 1599.95 1292.88L1599.95 1271.53C1599.95 1270.75 1599.8 1270.21 1599.5 1269.89 1599.2 1269.57 1598.78 1269.41 1598.22 1269.41 1597.6 1269.41 1596.69 1269.73 1595.48 1270.37 1594.27 1271 1592.7 1271.94 1590.77 1273.19 1590.51 1272.74 1590.28 1272.28 1590.06 1271.82 1589.84 1271.37 1589.61 1270.9 1589.37 1270.42 1591.84 1269.07 1594.27 1267.73 1596.69 1266.39 1599.1 1265.05 1601.55 1263.71 1604.03 1262.38ZM1569.03 1262.38 1570.84 1262.38C1570.8 1263.47 1570.77 1264.45 1570.75 1265.32 1570.73 1266.18 1570.72 1267.02 1570.71 1267.83 1570.7 1268.65 1570.7 1269.45 1570.7 1270.25L1570.7 1292.88C1570.7 1293.5 1570.71 1294.03 1570.75 1294.48 1570.79 1294.92 1570.86 1295.3 1570.95 1295.61 1571.04 1295.92 1571.16 1296.18 1571.31 1296.4 1571.45 1296.62 1571.63 1296.8 1571.83 1296.96 1572.07 1297.2 1572.38 1297.39 1572.78 1297.51 1573.18 1297.64 1573.68 1297.75 1574.3 1297.84 1574.91 1297.93 1575.65 1298 1576.52 1298.05 1577.38 1298.1 1578.42 1298.13 1579.63 1298.15L1579.63 1300.75 1556.01 1300.75 1556.01 1298.15C1557.18 1298.11 1558.18 1298.07 1558.99 1298.02 1559.8 1297.97 1560.5 1297.9 1561.07 1297.81 1561.65 1297.72 1562.11 1297.62 1562.46 1297.51 1562.81 1297.41 1563.11 1297.27 1563.37 1297.11 1563.65 1296.93 1563.88 1296.74 1564.08 1296.53 1564.28 1296.32 1564.44 1296.06 1564.56 1295.74 1564.68 1295.42 1564.77 1295.04 1564.84 1294.58 1564.91 1294.12 1564.95 1293.56 1564.95 1292.88L1564.95 1271.53C1564.95 1270.75 1564.8 1270.21 1564.5 1269.89 1564.2 1269.57 1563.78 1269.41 1563.22 1269.41 1562.6 1269.41 1561.69 1269.73 1560.48 1270.37 1559.27 1271 1557.7 1271.94 1555.77 1273.19 1555.51 1272.74 1555.28 1272.28 1555.06 1271.82 1554.84 1271.37 1554.61 1270.9 1554.37 1270.42 1556.84 1269.07 1559.27 1267.73 1561.69 1266.39 1564.1 1265.05 1566.55 1263.71 1569.03 1262.38Z" fill-rule="evenodd"/><text fill="#000000" fill-opacity="0" font-family="Arial,Arial_MSFontService,sans-serif" font-size="38.3633" x="1554.37" y="1295.95">11</text><path d="M1576.93 1212.42 1578.75 1212.42C1578.71 1213.52 1578.68 1214.49 1578.66 1215.36 1578.64 1216.22 1578.63 1217.06 1578.62 1217.88 1578.61 1218.69 1578.6 1219.49 1578.6 1220.29L1578.6 1242.92C1578.6 1243.54 1578.62 1244.07 1578.66 1244.52 1578.7 1244.96 1578.77 1245.34 1578.85 1245.65 1578.94 1245.96 1579.06 1246.22 1579.21 1246.44 1579.36 1246.66 1579.53 1246.85 1579.73 1247 1579.97 1247.24 1580.29 1247.43 1580.69 1247.56 1581.08 1247.68 1581.59 1247.79 1582.21 1247.88 1582.82 1247.97 1583.56 1248.04 1584.42 1248.09 1585.29 1248.14 1586.33 1248.18 1587.54 1248.2L1587.54 1250.79 1563.92 1250.79 1563.92 1248.2C1565.09 1248.16 1566.08 1248.11 1566.9 1248.06 1567.71 1248.01 1568.4 1247.94 1568.98 1247.85 1569.56 1247.76 1570.02 1247.67 1570.37 1247.56 1570.71 1247.45 1571.02 1247.31 1571.27 1247.15 1571.55 1246.98 1571.79 1246.78 1571.99 1246.57 1572.19 1246.36 1572.35 1246.1 1572.47 1245.78 1572.58 1245.47 1572.68 1245.08 1572.75 1244.62 1572.82 1244.17 1572.85 1243.6 1572.85 1242.92L1572.85 1221.57C1572.85 1220.79 1572.7 1220.25 1572.41 1219.93 1572.11 1219.61 1571.68 1219.45 1571.13 1219.45 1570.51 1219.45 1569.6 1219.77 1568.39 1220.41 1567.17 1221.04 1565.61 1221.99 1563.68 1223.24 1563.42 1222.78 1563.18 1222.32 1562.96 1221.87 1562.75 1221.41 1562.52 1220.94 1562.28 1220.47 1564.74 1219.12 1567.18 1217.77 1569.59 1216.43 1572 1215.09 1574.45 1213.75 1576.93 1212.42Z" fill-rule="evenodd"/><text fill="#000000" fill-opacity="0" font-family="Arial,Arial_MSFontService,sans-serif" font-size="38.3633" x="1562.28" y="1245.99">1</text><text font-family="Cambria,Cambria_MSFontService,sans-serif" font-weight="400" font-size="83" transform="matrix(1 0 0 1 734.79 910)">Layer 0</text><text font-family="Cambria,Cambria_MSFontService,sans-serif" font-weight="400" font-size="83" transform="matrix(1 0 0 1 2178.66 894)">Layer 1</text><path d="M2404.5 969.5 2404.5 1718.99" stroke="#000000" stroke-width="4.58333" stroke-miterlimit="8" fill="none" fill-rule="evenodd"/><path d="M2065.68 1265.58 2094.5 1265.58 2095.27 1267.6 2075.94 1289.81C2072.18 1294.11 2068.92 1297.75 2066.17 1300.75L2066.41 1301.04 2075.57 1301.04C2077.19 1301.04 2078.44 1300.95 2079.3 1300.77 2080.16 1300.6 2080.92 1300.27 2081.57 1299.78 2082.22 1299.29 2082.89 1298.56 2083.58 1297.57 2084.26 1296.59 2085.12 1295.04 2086.15 1292.93L2089.76 1292.93 2087.28 1304.32 2057.94 1304.32 2057.17 1302.33 2079.34 1276.8C2082.47 1273.21 2084.77 1270.66 2086.23 1269.14L2085.99 1268.86 2076.5 1268.86C2075.1 1268.86 2074.07 1268.95 2073.42 1269.14 2072.77 1269.33 2072.13 1269.66 2071.48 1270.14 2070.83 1270.61 2070.13 1271.31 2069.39 1272.24 2068.65 1273.17 2067.82 1274.51 2066.9 1276.23L2063.29 1276.23Z" fill-rule="evenodd"/><text fill="#000000" fill-opacity="0" font-family="Arial,Arial_MSFontService,sans-serif" font-size="38.7441" x="2057.17" y="1299.48">ğ‘§</text><path d="M2112.45 1284.27 2114.27 1284.27C2114.23 1285.36 2114.2 1286.34 2114.18 1287.2 2114.16 1288.06 2114.14 1288.9 2114.13 1289.72 2114.12 1290.53 2114.12 1291.34 2114.12 1292.13L2114.12 1314.77C2114.12 1315.38 2114.14 1315.91 2114.18 1316.36 2114.22 1316.81 2114.28 1317.18 2114.37 1317.49 2114.46 1317.8 2114.58 1318.06 2114.73 1318.28 2114.88 1318.5 2115.05 1318.69 2115.25 1318.85 2115.49 1319.09 2115.8 1319.27 2116.2 1319.4 2116.6 1319.53 2117.11 1319.64 2117.72 1319.73 2118.34 1319.82 2119.08 1319.89 2119.94 1319.93 2120.8 1319.98 2121.84 1320.02 2123.05 1320.04L2123.05 1322.63 2099.43 1322.63 2099.43 1320.04C2100.6 1320 2101.6 1319.95 2102.41 1319.91 2103.23 1319.86 2103.92 1319.79 2104.5 1319.7 2105.07 1319.61 2105.53 1319.51 2105.88 1319.4 2106.23 1319.29 2106.53 1319.16 2106.79 1319 2107.07 1318.82 2107.31 1318.62 2107.5 1318.42 2107.7 1318.21 2107.86 1317.94 2107.98 1317.63 2108.1 1317.31 2108.19 1316.92 2108.26 1316.46 2108.33 1316.01 2108.37 1315.44 2108.37 1314.77L2108.37 1293.41C2108.37 1292.64 2108.22 1292.09 2107.92 1291.77 2107.62 1291.46 2107.2 1291.3 2106.64 1291.3 2106.03 1291.3 2105.11 1291.61 2103.9 1292.25 2102.69 1292.89 2101.12 1293.83 2099.19 1295.08 2098.94 1294.62 2098.7 1294.17 2098.48 1293.71 2098.26 1293.25 2098.03 1292.79 2097.79 1292.31 2100.26 1290.96 2102.69 1289.61 2105.11 1288.27 2107.52 1286.93 2109.97 1285.6 2112.45 1284.27Z" fill-rule="evenodd"/><text fill="#000000" fill-opacity="0" font-family="Arial,Arial_MSFontService,sans-serif" font-size="38.3633" x="2097.79" y="1317.84">1</text><path d="M2118.64 1234.31 2120.45 1234.31C2120.41 1235.4 2120.38 1236.38 2120.36 1237.24 2120.34 1238.11 2120.33 1238.95 2120.32 1239.76 2120.31 1240.57 2120.3 1241.38 2120.3 1242.17L2120.3 1264.81C2120.3 1265.42 2120.32 1265.96 2120.36 1266.4 2120.4 1266.85 2120.47 1267.23 2120.56 1267.53 2120.65 1267.84 2120.77 1268.11 2120.92 1268.32 2121.06 1268.54 2121.24 1268.73 2121.44 1268.89 2121.67 1269.13 2121.99 1269.31 2122.39 1269.44 2122.79 1269.57 2123.29 1269.68 2123.91 1269.77 2124.52 1269.86 2125.26 1269.93 2126.13 1269.98 2126.99 1270.03 2128.03 1270.06 2129.24 1270.08L2129.24 1272.67 2105.62 1272.67 2105.62 1270.08C2106.79 1270.04 2107.78 1270 2108.6 1269.95 2109.41 1269.9 2110.11 1269.83 2110.68 1269.74 2111.26 1269.65 2111.72 1269.55 2112.07 1269.44 2112.42 1269.33 2112.72 1269.2 2112.98 1269.04 2113.26 1268.86 2113.49 1268.67 2113.69 1268.46 2113.89 1268.25 2114.05 1267.99 2114.17 1267.67 2114.29 1267.35 2114.38 1266.96 2114.45 1266.51 2114.52 1266.05 2114.56 1265.48 2114.56 1264.81L2114.56 1243.45C2114.56 1242.68 2114.41 1242.13 2114.11 1241.81 2113.81 1241.5 2113.38 1241.34 2112.83 1241.34 2112.21 1241.34 2111.3 1241.66 2110.09 1242.29 2108.88 1242.93 2107.31 1243.87 2105.38 1245.12 2105.12 1244.66 2104.89 1244.21 2104.67 1243.75 2104.45 1243.29 2104.22 1242.83 2103.98 1242.35 2106.44 1241 2108.88 1239.66 2111.29 1238.31 2113.71 1236.97 2116.15 1235.64 2118.64 1234.31Z" fill-rule="evenodd"/><text fill="#000000" fill-opacity="0" font-family="Arial,Arial_MSFontService,sans-serif" font-size="38.3633" x="2103.98" y="1267.88">1</text><path d="M2165.85 1286.33 2215.78 1286.33 2215.78 1291.72 2165.85 1291.72ZM2165.85 1269.51 2215.78 1269.51 2215.78 1274.9 2165.85 1274.9Z" fill-rule="evenodd"/><text fill="#000000" fill-opacity="0" font-family="Arial,Arial_MSFontService,sans-serif" font-size="22.209" x="2165.85" y="1288.94">=</text><path d="M1942.58 1366.56 1953.2 1366.56 1955.63 1398.54C1959.44 1392.32 1962.19 1387.59 1963.87 1384.35 1965.56 1381.11 1966.81 1378.31 1967.62 1375.94 1968.43 1373.58 1969.05 1371.11 1969.49 1368.55L1969.93 1366.56 1975.77 1366.56 1978.73 1398.58C1982.94 1392.58 1986.15 1387.35 1988.35 1382.87 1990.55 1378.4 1991.66 1374.76 1991.66 1371.95 1991.66 1370.68 1991.39 1369.82 1990.85 1369.36 1990.3 1368.9 1989.39 1368.63 1988.09 1368.55L1988.49 1366.56 1998.95 1366.56 2000.04 1368.59C1999.1 1370.99 1998.34 1372.84 1997.78 1374.14 1997.21 1375.44 1996.46 1377 1995.55 1378.82 1994.63 1380.64 1993.66 1382.46 1992.63 1384.27 1991.6 1386.08 1990.39 1388.07 1989 1390.25 1987.61 1392.42 1986.05 1394.79 1984.32 1397.34 1982.59 1399.9 1980.55 1402.77 1978.2 1405.95L1973.38 1405.95 1971.72 1389.01C1971.58 1387.69 1971.44 1385.96 1971.29 1383.83 1971.14 1381.69 1971.04 1380.04 1970.99 1378.88L1970.54 1378.84C1969.08 1382.43 1967.1 1386.43 1964.58 1390.84 1962.07 1395.24 1958.96 1400.28 1955.26 1405.95L1949.83 1405.95 1946.75 1375.44C1946.59 1373.87 1946.39 1372.6 1946.14 1371.63 1945.9 1370.65 1945.49 1369.93 1944.93 1369.44 1944.36 1368.95 1943.43 1368.66 1942.13 1368.55Z" fill-rule="evenodd"/><text fill="#000000" fill-opacity="0" font-family="Arial,Arial_MSFontService,sans-serif" font-size="39.3926" x="1942.13" y="1401.03">ğ‘¤</text><path d="M2051.08 1385.25 2052.9 1385.25C2052.86 1386.34 2052.83 1387.32 2052.81 1388.19 2052.79 1389.05 2052.78 1389.89 2052.77 1390.7 2052.76 1391.52 2052.75 1392.32 2052.75 1393.12L2052.75 1415.75C2052.75 1416.37 2052.77 1416.9 2052.81 1417.35 2052.85 1417.79 2052.92 1418.17 2053.01 1418.48 2053.09 1418.79 2053.21 1419.05 2053.36 1419.27 2053.51 1419.49 2053.69 1419.67 2053.88 1419.83 2054.12 1420.07 2054.44 1420.26 2054.84 1420.38 2055.23 1420.51 2055.74 1420.62 2056.36 1420.71 2056.97 1420.8 2057.71 1420.87 2058.58 1420.92 2059.44 1420.97 2060.48 1421 2061.69 1421.02L2061.69 1423.62 2038.07 1423.62 2038.07 1421.02C2039.24 1420.98 2040.23 1420.94 2041.05 1420.89 2041.86 1420.84 2042.56 1420.77 2043.13 1420.68 2043.71 1420.59 2044.17 1420.49 2044.52 1420.38 2044.86 1420.27 2045.17 1420.14 2045.43 1419.98 2045.7 1419.8 2045.94 1419.61 2046.14 1419.4 2046.34 1419.19 2046.5 1418.93 2046.62 1418.61 2046.74 1418.29 2046.83 1417.91 2046.9 1417.45 2046.97 1416.99 2047 1416.43 2047 1415.75L2047 1394.4C2047 1393.62 2046.85 1393.08 2046.56 1392.76 2046.26 1392.44 2045.83 1392.28 2045.28 1392.28 2044.66 1392.28 2043.75 1392.6 2042.54 1393.23 2041.32 1393.87 2039.76 1394.81 2037.83 1396.06 2037.57 1395.61 2037.33 1395.15 2037.11 1394.69 2036.9 1394.24 2036.67 1393.77 2036.43 1393.29 2038.89 1391.94 2041.33 1390.6 2043.74 1389.26 2046.15 1387.92 2048.6 1386.58 2051.08 1385.25ZM2016.08 1385.25 2017.9 1385.25C2017.86 1386.34 2017.83 1387.32 2017.81 1388.19 2017.79 1389.05 2017.78 1389.89 2017.77 1390.7 2017.76 1391.52 2017.75 1392.32 2017.75 1393.12L2017.75 1415.75C2017.75 1416.37 2017.77 1416.9 2017.81 1417.35 2017.85 1417.79 2017.92 1418.17 2018.01 1418.48 2018.09 1418.79 2018.21 1419.05 2018.36 1419.27 2018.51 1419.49 2018.69 1419.67 2018.88 1419.83 2019.12 1420.07 2019.44 1420.26 2019.84 1420.38 2020.23 1420.51 2020.74 1420.62 2021.36 1420.71 2021.97 1420.8 2022.71 1420.87 2023.58 1420.92 2024.44 1420.97 2025.48 1421 2026.69 1421.02L2026.69 1423.62 2003.07 1423.62 2003.07 1421.02C2004.24 1420.98 2005.23 1420.94 2006.05 1420.89 2006.86 1420.84 2007.56 1420.77 2008.13 1420.68 2008.71 1420.59 2009.17 1420.49 2009.52 1420.38 2009.86 1420.27 2010.17 1420.14 2010.43 1419.98 2010.7 1419.8 2010.94 1419.61 2011.14 1419.4 2011.34 1419.19 2011.5 1418.93 2011.62 1418.61 2011.74 1418.29 2011.83 1417.91 2011.9 1417.45 2011.97 1416.99 2012 1416.43 2012 1415.75L2012 1394.4C2012 1393.62 2011.85 1393.08 2011.56 1392.76 2011.26 1392.44 2010.83 1392.28 2010.28 1392.28 2009.66 1392.28 2008.75 1392.6 2007.54 1393.23 2006.32 1393.87 2004.76 1394.81 2002.83 1396.06 2002.57 1395.61 2002.33 1395.15 2002.11 1394.69 2001.9 1394.24 2001.67 1393.77 2001.43 1393.29 2003.89 1391.94 2006.33 1390.6 2008.74 1389.26 2011.15 1387.92 2013.6 1386.58 2016.08 1385.25Z" fill-rule="evenodd"/><text fill="#000000" fill-opacity="0" font-family="Arial,Arial_MSFontService,sans-serif" font-size="38.3633" x="2001.43" y="1418.82">11</text><path d="M2023.99 1335.29 2025.81 1335.29C2025.77 1336.39 2025.74 1337.36 2025.72 1338.23 2025.7 1339.09 2025.68 1339.93 2025.67 1340.74 2025.66 1341.56 2025.66 1342.36 2025.66 1343.16L2025.66 1365.79C2025.66 1366.41 2025.68 1366.94 2025.72 1367.39 2025.76 1367.83 2025.82 1368.21 2025.91 1368.52 2026 1368.83 2026.12 1369.09 2026.27 1369.31 2026.42 1369.53 2026.59 1369.72 2026.79 1369.87 2027.03 1370.11 2027.35 1370.3 2027.74 1370.43 2028.14 1370.55 2028.65 1370.66 2029.26 1370.75 2029.88 1370.84 2030.62 1370.91 2031.48 1370.96 2032.35 1371.01 2033.38 1371.05 2034.59 1371.07L2034.59 1373.66 2010.97 1373.66 2010.97 1371.07C2012.15 1371.03 2013.14 1370.98 2013.95 1370.93 2014.77 1370.88 2015.46 1370.81 2016.04 1370.72 2016.61 1370.63 2017.08 1370.54 2017.42 1370.43 2017.77 1370.32 2018.07 1370.18 2018.33 1370.02 2018.61 1369.85 2018.85 1369.65 2019.05 1369.44 2019.24 1369.23 2019.4 1368.97 2019.52 1368.65 2019.64 1368.34 2019.74 1367.95 2019.81 1367.49 2019.88 1367.04 2019.91 1366.47 2019.91 1365.79L2019.91 1344.44C2019.91 1343.66 2019.76 1343.12 2019.46 1342.8 2019.17 1342.48 2018.74 1342.32 2018.18 1342.32 2017.57 1342.32 2016.65 1342.64 2015.44 1343.28 2014.23 1343.91 2012.66 1344.86 2010.74 1346.11 2010.48 1345.65 2010.24 1345.19 2010.02 1344.74 2009.8 1344.28 2009.57 1343.81 2009.34 1343.34 2011.8 1341.99 2014.24 1340.64 2016.65 1339.3 2019.06 1337.96 2021.51 1336.62 2023.99 1335.29Z" fill-rule="evenodd"/><text fill="#000000" fill-opacity="0" font-family="Arial,Arial_MSFontService,sans-serif" font-size="38.3633" x="2009.34" y="1368.86">1</text><path d="M2095.27 1369.07C2092.48 1369.07 2089.99 1370.2 2087.77 1372.44 2085.55 1374.68 2083.83 1377.69 2082.58 1381.46 2081.34 1385.22 2080.72 1388.99 2080.72 1392.74 2080.72 1395.55 2081.1 1397.65 2081.87 1399.04 2082.64 1400.44 2083.93 1401.13 2085.74 1401.13 2087.53 1401.13 2089.28 1400.36 2090.99 1398.82 2092.71 1397.28 2094.48 1395.09 2096.3 1392.24 2098.12 1389.38 2099.42 1386.1 2100.17 1382.37L2100.54 1380.62C2100.78 1379.52 2100.94 1378.56 2101.02 1377.75 2101.1 1376.94 2101.14 1376.06 2101.14 1375.11 2101.14 1373.03 2100.7 1371.51 2099.81 1370.53 2098.92 1369.56 2097.4 1369.07 2095.27 1369.07ZM2094.46 1365.87C2096.21 1365.87 2097.85 1366.07 2099.38 1366.46 2100.91 1366.85 2102.48 1367.55 2104.1 1368.55L2107.83 1365.87 2110.43 1366.52 2104.47 1392.22C2103.87 1394.78 2103.58 1396.78 2103.58 1398.21 2103.58 1399.29 2103.75 1400.08 2104.1 1400.56 2104.45 1401.05 2105.01 1401.29 2105.76 1401.29 2106.57 1401.29 2107.44 1400.96 2108.36 1400.3 2109.28 1399.64 2110.57 1398.38 2112.25 1396.51L2114.56 1398.78C2112.13 1401.37 2110.05 1403.22 2108.34 1404.31 2106.62 1405.41 2104.76 1405.95 2102.77 1405.95 2101.09 1405.95 2099.75 1405.4 2098.75 1404.29 2097.75 1403.18 2097.25 1401.71 2097.25 1399.87 2097.25 1398.39 2097.56 1396.81 2098.19 1395.13L2097.66 1394.97C2095.07 1398.75 2092.61 1401.52 2090.28 1403.28 2087.96 1405.04 2085.5 1405.91 2082.91 1405.91 2079.94 1405.91 2077.63 1404.79 2076 1402.55 2074.36 1400.31 2073.55 1397.16 2073.55 1393.11 2073.55 1388.46 2074.46 1383.99 2076.28 1379.71 2078.1 1375.43 2080.61 1372.05 2083.8 1369.58 2086.99 1367.11 2090.54 1365.87 2094.46 1365.87Z" fill-rule="evenodd"/><text fill="#000000" fill-opacity="0" font-family="Arial,Arial_MSFontService,sans-serif" font-size="40.0815" x="2073.55" y="1400.94">ğ‘</text><path d="M2133.33 1385.55 2135.14 1385.55C2135.1 1386.64 2135.07 1387.62 2135.05 1388.48 2135.03 1389.35 2135.02 1390.19 2135.01 1391 2135 1391.82 2134.99 1392.62 2134.99 1393.41L2134.99 1416.05C2134.99 1416.67 2135.01 1417.2 2135.05 1417.64 2135.09 1418.09 2135.16 1418.47 2135.25 1418.78 2135.34 1419.08 2135.46 1419.35 2135.6 1419.57 2135.75 1419.78 2135.93 1419.97 2136.13 1420.13 2136.36 1420.37 2136.68 1420.55 2137.08 1420.68 2137.48 1420.81 2137.98 1420.92 2138.6 1421.01 2139.21 1421.1 2139.95 1421.17 2140.82 1421.22 2141.68 1421.27 2142.72 1421.3 2143.93 1421.32L2143.93 1423.91 2120.31 1423.91 2120.31 1421.32C2121.48 1421.28 2122.47 1421.24 2123.29 1421.19 2124.1 1421.14 2124.8 1421.07 2125.37 1420.98 2125.95 1420.89 2126.41 1420.79 2126.76 1420.68 2127.11 1420.57 2127.41 1420.44 2127.67 1420.28 2127.94 1420.1 2128.18 1419.91 2128.38 1419.7 2128.58 1419.49 2128.74 1419.23 2128.86 1418.91 2128.98 1418.59 2129.07 1418.2 2129.14 1417.75 2129.21 1417.29 2129.25 1416.73 2129.25 1416.05L2129.25 1394.69C2129.25 1393.92 2129.1 1393.37 2128.8 1393.06 2128.5 1392.74 2128.07 1392.58 2127.52 1392.58 2126.9 1392.58 2125.99 1392.9 2124.78 1393.53 2123.57 1394.17 2122 1395.11 2120.07 1396.36 2119.81 1395.91 2119.58 1395.45 2119.36 1394.99 2119.14 1394.54 2118.91 1394.07 2118.67 1393.59 2121.13 1392.24 2123.57 1390.9 2125.98 1389.56 2128.4 1388.22 2130.84 1386.88 2133.33 1385.55Z" fill-rule="evenodd"/><text fill="#000000" fill-opacity="0" font-family="Arial,Arial_MSFontService,sans-serif" font-size="38.3633" x="2118.67" y="1419.12">1</text><path d="M2134.8 1337.65C2133.41 1337.65 2132.25 1338.02 2131.32 1338.74 2130.38 1339.47 2129.64 1340.53 2129.1 1341.93 2128.55 1343.33 2128.17 1345.04 2127.94 1347.05 2127.71 1349.07 2127.59 1351.36 2127.59 1353.92 2127.59 1356.88 2127.74 1359.43 2128.03 1361.59 2128.31 1363.74 2128.76 1365.51 2129.37 1366.9 2129.97 1368.29 2130.73 1369.32 2131.65 1369.97 2132.56 1370.63 2133.65 1370.95 2134.92 1370.95 2136.11 1370.95 2137.16 1370.65 2138.05 1370.03 2138.94 1369.41 2139.68 1368.46 2140.27 1367.16 2140.85 1365.86 2141.3 1364.21 2141.59 1362.21 2141.89 1360.22 2142.04 1357.86 2142.04 1355.14 2142.04 1352.08 2141.88 1349.45 2141.55 1347.24 2141.22 1345.04 2140.76 1343.23 2140.16 1341.81 2139.57 1340.39 2138.82 1339.34 2137.91 1338.67 2137.01 1337.99 2135.97 1337.65 2134.8 1337.65ZM2134.92 1334.76C2137.28 1334.76 2139.3 1335.21 2140.98 1336.09 2142.66 1336.97 2144.03 1338.23 2145.09 1339.87 2146.16 1341.51 2146.93 1343.51 2147.43 1345.87 2147.93 1348.24 2148.18 1350.91 2148.18 1353.89 2148.18 1360.5 2147 1365.5 2144.66 1368.88 2142.32 1372.27 2138.92 1373.96 2134.47 1373.96 2130.07 1373.96 2126.79 1372.36 2124.65 1369.17 2122.5 1365.97 2121.43 1361.12 2121.43 1354.63 2121.43 1351.24 2121.76 1348.3 2122.43 1345.82 2123.09 1343.33 2124.02 1341.27 2125.23 1339.63 2126.43 1338 2127.85 1336.78 2129.5 1335.97 2131.15 1335.17 2132.96 1334.76 2134.92 1334.76Z" fill-rule="evenodd"/><text fill="#000000" fill-opacity="0" font-family="Arial,Arial_MSFontService,sans-serif" font-size="39.1973" x="2121.43" y="1369.06">0</text><path d="M2201.96 1355.54 2207.72 1355.54 2207.72 1378.88 2229.8 1378.88 2229.8 1384.27 2207.72 1384.27 2207.72 1407.62 2201.96 1407.62 2201.96 1384.27 2179.87 1384.27 2179.87 1378.88 2201.96 1378.88Z" fill-rule="evenodd"/><text fill="#000000" fill-opacity="0" font-family="Arial,Arial_MSFontService,sans-serif" font-size="52.0776" x="2179.87" y="1401.11">+</text><path d="M2282.29 1370.65C2280.99 1370.65 2279.72 1371.07 2278.46 1371.89 2277.21 1372.71 2275.81 1374.08 2274.27 1375.98 2272.73 1377.89 2271.47 1379.84 2270.5 1381.84 2269.53 1383.84 2268.7 1386.39 2268.03 1389.5L2267.66 1391.2C2267.26 1393.09 2267.05 1394.93 2267.05 1396.71 2267.05 1398.85 2267.52 1400.39 2268.45 1401.33 2269.38 1402.28 2270.93 1402.75 2273.09 1402.75 2274.2 1402.75 2275.25 1402.57 2276.25 1402.21 2277.25 1401.84 2278.27 1401.24 2279.31 1400.4 2280.35 1399.56 2281.34 1398.46 2282.27 1397.1 2283.2 1395.73 2284.06 1394.05 2284.84 1392.05 2285.63 1390.05 2286.24 1387.91 2286.67 1385.63 2287.1 1383.35 2287.32 1381.16 2287.32 1379.08 2287.32 1376.27 2286.92 1374.17 2286.12 1372.76 2285.32 1371.36 2284.05 1370.65 2282.29 1370.65ZM2275.2 1347.35 2277.55 1347.35 2270.42 1375.72 2270.94 1375.88C2273.56 1372.37 2276.02 1369.83 2278.32 1368.26 2280.62 1366.7 2282.91 1365.91 2285.21 1365.91 2288.15 1365.91 2290.44 1367.03 2292.08 1369.28 2293.71 1371.52 2294.53 1374.68 2294.53 1378.76 2294.53 1383.22 2293.63 1387.6 2291.84 1391.91 2290.04 1396.22 2287.55 1399.64 2284.36 1402.16 2281.17 1404.69 2277.6 1405.95 2273.66 1405.95 2270.07 1405.95 2266.88 1405.08 2264.09 1403.32L2260.37 1405.95 2257.77 1405.31 2268.27 1358.98C2268.89 1356.23 2269.2 1354.23 2269.2 1352.98 2269.2 1351.85 2268.86 1351.05 2268.17 1350.59 2267.48 1350.13 2266.24 1349.88 2264.46 1349.82L2264.95 1347.72Z" fill-rule="evenodd"/><text fill="#000000" fill-opacity="0" font-family="Arial,Arial_MSFontService,sans-serif" font-size="58.6025" x="2257.77" y="1398.63">ğ‘</text><path d="M2314.32 1385.25 2316.14 1385.25C2316.1 1386.34 2316.07 1387.32 2316.05 1388.19 2316.03 1389.05 2316.01 1389.89 2316 1390.7 2315.99 1391.52 2315.99 1392.32 2315.99 1393.12L2315.99 1415.75C2315.99 1416.37 2316.01 1416.9 2316.05 1417.35 2316.09 1417.79 2316.15 1418.17 2316.24 1418.48 2316.33 1418.79 2316.45 1419.05 2316.6 1419.27 2316.75 1419.49 2316.92 1419.67 2317.12 1419.83 2317.36 1420.07 2317.68 1420.26 2318.07 1420.38 2318.47 1420.51 2318.98 1420.62 2319.59 1420.71 2320.21 1420.8 2320.95 1420.87 2321.81 1420.92 2322.68 1420.97 2323.71 1421 2324.93 1421.02L2324.93 1423.62 2301.31 1423.62 2301.31 1421.02C2302.48 1420.98 2303.47 1420.94 2304.28 1420.89 2305.1 1420.84 2305.79 1420.77 2306.37 1420.68 2306.95 1420.59 2307.41 1420.49 2307.75 1420.38 2308.1 1420.27 2308.4 1420.14 2308.66 1419.98 2308.94 1419.8 2309.18 1419.61 2309.38 1419.4 2309.58 1419.19 2309.73 1418.93 2309.85 1418.61 2309.97 1418.29 2310.07 1417.91 2310.14 1417.45 2310.21 1416.99 2310.24 1416.43 2310.24 1415.75L2310.24 1394.4C2310.24 1393.62 2310.09 1393.08 2309.79 1392.76 2309.5 1392.44 2309.07 1392.28 2308.51 1392.28 2307.9 1392.28 2306.98 1392.6 2305.77 1393.23 2304.56 1393.87 2302.99 1394.81 2301.07 1396.06 2300.81 1395.61 2300.57 1395.15 2300.35 1394.69 2300.13 1394.24 2299.91 1393.77 2299.67 1393.29 2302.13 1391.94 2304.57 1390.6 2306.98 1389.26 2309.39 1387.92 2311.84 1386.58 2314.32 1385.25Z" fill-rule="evenodd"/><text fill="#000000" fill-opacity="0" font-family="Arial,Arial_MSFontService,sans-serif" font-size="38.3633" x="2299.67" y="1418.82">1</text><path d="M2319.68 1335.29 2321.5 1335.29C2321.46 1336.39 2321.43 1337.36 2321.41 1338.23 2321.39 1339.09 2321.38 1339.93 2321.37 1340.74 2321.36 1341.56 2321.35 1342.36 2321.35 1343.16L2321.35 1365.79C2321.35 1366.41 2321.37 1366.94 2321.41 1367.39 2321.45 1367.83 2321.52 1368.21 2321.61 1368.52 2321.69 1368.83 2321.81 1369.09 2321.96 1369.31 2322.11 1369.53 2322.29 1369.72 2322.48 1369.87 2322.72 1370.11 2323.04 1370.3 2323.44 1370.43 2323.83 1370.55 2324.34 1370.66 2324.96 1370.75 2325.57 1370.84 2326.31 1370.91 2327.18 1370.96 2328.04 1371.01 2329.08 1371.05 2330.29 1371.07L2330.29 1373.66 2306.67 1373.66 2306.67 1371.07C2307.84 1371.03 2308.83 1370.98 2309.65 1370.93 2310.46 1370.88 2311.16 1370.81 2311.73 1370.72 2312.31 1370.63 2312.77 1370.54 2313.12 1370.43 2313.46 1370.32 2313.77 1370.18 2314.03 1370.02 2314.3 1369.85 2314.54 1369.65 2314.74 1369.44 2314.94 1369.23 2315.1 1368.97 2315.22 1368.65 2315.34 1368.34 2315.43 1367.95 2315.5 1367.49 2315.57 1367.04 2315.6 1366.47 2315.6 1365.79L2315.6 1344.44C2315.6 1343.66 2315.45 1343.12 2315.16 1342.8 2314.86 1342.48 2314.43 1342.32 2313.88 1342.32 2313.26 1342.32 2312.35 1342.64 2311.14 1343.28 2309.92 1343.91 2308.36 1344.86 2306.43 1346.11 2306.17 1345.65 2305.93 1345.19 2305.72 1344.74 2305.5 1344.28 2305.27 1343.81 2305.03 1343.34 2307.49 1341.99 2309.93 1340.64 2312.34 1339.3 2314.75 1337.96 2317.2 1336.62 2319.68 1335.29Z" fill-rule="evenodd"/><text fill="#000000" fill-opacity="0" font-family="Arial,Arial_MSFontService,sans-serif" font-size="38.3633" x="2305.03" y="1368.86">1</text><path d="M2471.09 1268.16C2468.3 1268.16 2465.81 1269.28 2463.59 1271.52 2461.37 1273.76 2459.65 1276.77 2458.4 1280.54 2457.16 1284.31 2456.54 1288.07 2456.54 1291.82 2456.54 1294.63 2456.92 1296.73 2457.69 1298.13 2458.46 1299.52 2459.75 1300.21 2461.56 1300.21 2463.35 1300.21 2465.1 1299.44 2466.81 1297.9 2468.53 1296.36 2470.3 1294.17 2472.12 1291.32 2473.94 1288.47 2475.23 1285.18 2475.99 1281.45L2476.36 1279.71C2476.6 1278.6 2476.76 1277.64 2476.84 1276.83 2476.92 1276.02 2476.96 1275.14 2476.96 1274.19 2476.96 1272.11 2476.52 1270.59 2475.63 1269.61 2474.73 1268.64 2473.22 1268.16 2471.09 1268.16ZM2470.28 1264.95C2472.03 1264.95 2473.67 1265.15 2475.2 1265.54 2476.73 1265.93 2478.3 1266.63 2479.92 1267.63L2483.65 1264.95 2486.24 1265.6 2480.29 1291.3C2479.69 1293.86 2479.4 1295.86 2479.4 1297.29 2479.4 1298.38 2479.57 1299.16 2479.92 1299.65 2480.27 1300.13 2480.83 1300.38 2481.58 1300.38 2482.39 1300.38 2483.26 1300.04 2484.18 1299.38 2485.1 1298.72 2486.39 1297.46 2488.07 1295.59L2490.38 1297.86C2487.95 1300.46 2485.87 1302.3 2484.16 1303.39 2482.44 1304.49 2480.58 1305.04 2478.58 1305.04 2476.91 1305.04 2475.57 1304.48 2474.57 1303.37 2473.57 1302.27 2473.07 1300.79 2473.07 1298.96 2473.07 1297.47 2473.38 1295.89 2474.01 1294.21L2473.48 1294.05C2470.88 1297.84 2468.43 1300.6 2466.1 1302.36 2463.78 1304.12 2461.32 1305 2458.73 1305 2455.75 1305 2453.45 1303.87 2451.82 1301.63 2450.18 1299.39 2449.36 1296.24 2449.36 1292.19 2449.36 1287.54 2450.28 1283.08 2452.1 1278.79 2453.92 1274.51 2456.43 1271.13 2459.62 1268.66 2462.81 1266.19 2466.36 1264.95 2470.28 1264.95Z" fill-rule="evenodd"/><text fill="#000000" fill-opacity="0" font-family="Arial,Arial_MSFontService,sans-serif" font-size="40.0815" x="2449.36" y="1300.03">ğ‘</text><path d="M2509.15 1284.33 2510.96 1284.33C2510.92 1285.43 2510.89 1286.4 2510.87 1287.27 2510.85 1288.13 2510.84 1288.97 2510.83 1289.79 2510.82 1290.6 2510.81 1291.4 2510.81 1292.2L2510.81 1314.83C2510.81 1315.45 2510.83 1315.98 2510.87 1316.43 2510.91 1316.87 2510.98 1317.25 2511.07 1317.56 2511.16 1317.87 2511.28 1318.13 2511.42 1318.35 2511.57 1318.57 2511.75 1318.76 2511.95 1318.91 2512.18 1319.15 2512.5 1319.34 2512.9 1319.47 2513.3 1319.59 2513.8 1319.7 2514.42 1319.79 2515.03 1319.88 2515.77 1319.95 2516.64 1320 2517.5 1320.05 2518.54 1320.09 2519.75 1320.11L2519.75 1322.7 2496.13 1322.7 2496.13 1320.11C2497.3 1320.07 2498.29 1320.02 2499.11 1319.97 2499.92 1319.92 2500.62 1319.85 2501.19 1319.76 2501.77 1319.67 2502.23 1319.58 2502.58 1319.47 2502.93 1319.36 2503.23 1319.22 2503.49 1319.06 2503.76 1318.89 2504 1318.69 2504.2 1318.48 2504.4 1318.27 2504.56 1318.01 2504.68 1317.69 2504.8 1317.38 2504.89 1316.99 2504.96 1316.53 2505.03 1316.08 2505.06 1315.51 2505.06 1314.83L2505.06 1293.48C2505.06 1292.7 2504.92 1292.16 2504.62 1291.84 2504.32 1291.52 2503.89 1291.36 2503.34 1291.36 2502.72 1291.36 2501.81 1291.68 2500.6 1292.32 2499.39 1292.95 2497.82 1293.9 2495.89 1295.15 2495.63 1294.69 2495.39 1294.23 2495.18 1293.78 2494.96 1293.32 2494.73 1292.85 2494.49 1292.38 2496.95 1291.03 2499.39 1289.68 2501.8 1288.34 2504.22 1287 2506.66 1285.66 2509.15 1284.33Z" fill-rule="evenodd"/><text fill="#000000" fill-opacity="0" font-family="Arial,Arial_MSFontService,sans-serif" font-size="38.3633" x="2494.49" y="1317.9">1</text><path d="M2511.3 1234.38 2513.12 1234.38C2513.08 1235.47 2513.05 1236.45 2513.03 1237.31 2513.01 1238.17 2512.99 1239.01 2512.98 1239.83 2512.97 1240.64 2512.97 1241.44 2512.97 1242.24L2512.97 1264.88C2512.97 1265.49 2512.99 1266.02 2513.03 1266.47 2513.07 1266.92 2513.13 1267.29 2513.22 1267.6 2513.31 1267.91 2513.43 1268.17 2513.58 1268.39 2513.73 1268.61 2513.9 1268.8 2514.1 1268.96 2514.34 1269.19 2514.66 1269.38 2515.05 1269.51 2515.45 1269.64 2515.96 1269.75 2516.57 1269.84 2517.19 1269.92 2517.93 1269.99 2518.79 1270.04 2519.65 1270.09 2520.69 1270.13 2521.9 1270.15L2521.9 1272.74 2498.28 1272.74 2498.28 1270.15C2499.46 1270.11 2500.45 1270.06 2501.26 1270.01 2502.08 1269.96 2502.77 1269.89 2503.35 1269.81 2503.92 1269.72 2504.38 1269.62 2504.73 1269.51 2505.08 1269.4 2505.38 1269.26 2505.64 1269.11 2505.92 1268.93 2506.16 1268.73 2506.36 1268.52 2506.55 1268.32 2506.71 1268.05 2506.83 1267.74 2506.95 1267.42 2507.05 1267.03 2507.11 1266.57 2507.18 1266.12 2507.22 1265.55 2507.22 1264.88L2507.22 1243.52C2507.22 1242.75 2507.07 1242.2 2506.77 1241.88 2506.47 1241.56 2506.05 1241.41 2505.49 1241.41 2504.88 1241.41 2503.96 1241.72 2502.75 1242.36 2501.54 1242.99 2499.97 1243.94 2498.05 1245.19 2497.79 1244.73 2497.55 1244.27 2497.33 1243.82 2497.11 1243.36 2496.88 1242.89 2496.65 1242.42 2499.11 1241.07 2501.55 1239.72 2503.96 1238.38 2506.37 1237.04 2508.82 1235.71 2511.3 1234.38Z" fill-rule="evenodd"/><text fill="#000000" fill-opacity="0" font-family="Arial,Arial_MSFontService,sans-serif" font-size="38.3633" x="2496.65" y="1267.94">1</text><path d="M2558.51 1286.39 2608.44 1286.39 2608.44 1291.78 2558.51 1291.78ZM2558.51 1269.57 2608.44 1269.57 2608.44 1274.96 2558.51 1274.96Z" fill-rule="evenodd"/><text fill="#000000" fill-opacity="0" font-family="Arial,Arial_MSFontService,sans-serif" font-size="22.209" x="2558.51" y="1289.01">=</text><path d="M2472.32 1371.09C2468.7 1371.2 2465.46 1372.25 2462.59 1374.23 2459.73 1376.22 2457.51 1378.89 2455.93 1382.24 2454.35 1385.59 2453.56 1389.3 2453.56 1393.38 2453.56 1395.49 2453.9 1397.18 2454.59 1398.47 2455.28 1399.75 2456.14 1400.64 2457.16 1401.12 2458.19 1401.61 2459.3 1401.85 2460.49 1401.85 2463.21 1401.85 2465.58 1400.96 2467.58 1399.18 2469.58 1397.39 2471.19 1394.68 2472.42 1391.03 2473.65 1387.38 2474.27 1383.84 2474.27 1380.41 2474.27 1376.71 2473.62 1373.6 2472.32 1371.09ZM2478.56 1365.62 2491.45 1365.62 2490.23 1370.97 2476.98 1370.97 2476.9 1371.29C2478.44 1373.13 2479.55 1374.98 2480.22 1376.85 2480.9 1378.71 2481.24 1380.75 2481.24 1382.97 2481.24 1386.99 2480.37 1390.73 2478.64 1394.17 2476.91 1397.62 2474.5 1400.28 2471.39 1402.18 2468.28 1404.07 2464.77 1405.01 2460.85 1405.01 2456.39 1405.01 2453 1403.82 2450.66 1401.43 2448.32 1399.03 2447.15 1395.65 2447.15 1391.27 2447.15 1388.27 2447.61 1385.43 2448.51 1382.74 2449.42 1380.05 2450.75 1377.58 2452.52 1375.33 2454.29 1373.07 2456.3 1371.24 2458.54 1369.83 2460.78 1368.43 2463.46 1367.38 2466.57 1366.67 2469.67 1365.97 2473.67 1365.62 2478.56 1365.62Z" fill-rule="evenodd"/><text fill="#000000" fill-opacity="0" font-family="Arial,Arial_MSFontService,sans-serif" font-size="39.3926" x="2447.15" y="1400.09">ğœ</text><path d="M2611.25 1342.25C2619.14 1344.33 2625.2 1348.82 2629.43 1355.73 2633.66 1362.63 2635.77 1370.96 2635.77 1380.71 2635.77 1390.49 2633.67 1398.82 2629.45 1405.7 2625.24 1412.57 2619.17 1417.05 2611.25 1419.13L2610.28 1416.01C2616.52 1413.93 2621.16 1409.82 2624.2 1403.69 2627.24 1397.56 2628.76 1389.76 2628.76 1380.31 2628.76 1371.17 2627.25 1363.59 2624.22 1357.55 2621.2 1351.51 2616.51 1347.45 2610.16 1345.37ZM2525.46 1342.25 2526.55 1345.37C2520.23 1347.45 2515.55 1351.51 2512.51 1357.55 2509.47 1363.59 2507.95 1371.17 2507.95 1380.31 2507.95 1389.76 2509.47 1397.56 2512.51 1403.69 2515.55 1409.82 2520.19 1413.93 2526.43 1416.01L2525.46 1419.13C2517.54 1417.05 2511.48 1412.57 2507.26 1405.7 2503.05 1398.82 2500.94 1390.49 2500.94 1380.71 2500.94 1370.96 2503.06 1362.63 2507.28 1355.73 2511.51 1348.82 2517.57 1344.33 2525.46 1342.25Z" fill-rule="evenodd"/><path d="M2537.41 1365.62 2566.22 1365.62 2566.99 1367.65 2547.66 1389.86C2543.91 1394.15 2540.65 1397.8 2537.89 1400.8L2538.14 1401.08 2547.3 1401.08C2548.92 1401.08 2550.16 1400.99 2551.03 1400.82 2551.89 1400.64 2552.65 1400.31 2553.29 1399.83 2553.94 1399.34 2554.61 1398.6 2555.3 1397.62 2555.99 1396.63 2556.85 1395.08 2557.87 1392.98L2561.48 1392.98 2559.01 1404.36 2529.67 1404.36 2528.9 1402.38 2551.07 1376.85C2554.2 1373.25 2556.5 1370.7 2557.96 1369.19L2557.71 1368.9 2548.23 1368.9C2546.82 1368.9 2545.8 1369 2545.15 1369.19 2544.5 1369.38 2543.85 1369.71 2543.2 1370.18 2542.56 1370.65 2541.86 1371.35 2541.12 1372.29 2540.37 1373.22 2539.54 1374.55 2538.62 1376.28L2535.02 1376.28Z" fill-rule="evenodd"/><text fill="#000000" fill-opacity="0" font-family="Arial,Arial_MSFontService,sans-serif" font-size="38.7441" x="2528.9" y="1399.52">ğ‘§</text><path d="M2584.17 1384.31 2585.99 1384.31C2585.95 1385.4 2585.92 1386.38 2585.9 1387.25 2585.88 1388.11 2585.87 1388.95 2585.86 1389.76 2585.85 1390.58 2585.84 1391.38 2585.84 1392.17L2585.84 1414.81C2585.84 1415.43 2585.86 1415.96 2585.9 1416.4 2585.94 1416.85 2586.01 1417.23 2586.1 1417.54 2586.19 1417.84 2586.3 1418.11 2586.45 1418.33 2586.6 1418.54 2586.78 1418.73 2586.97 1418.89 2587.21 1419.13 2587.53 1419.31 2587.93 1419.44 2588.32 1419.57 2588.83 1419.68 2589.45 1419.77 2590.06 1419.86 2590.8 1419.93 2591.67 1419.98 2592.53 1420.03 2593.57 1420.06 2594.78 1420.08L2594.78 1422.67 2571.16 1422.67 2571.16 1420.08C2572.33 1420.04 2573.32 1420 2574.14 1419.95 2574.95 1419.9 2575.65 1419.83 2576.22 1419.74 2576.8 1419.65 2577.26 1419.55 2577.61 1419.44 2577.95 1419.33 2578.26 1419.2 2578.52 1419.04 2578.79 1418.86 2579.03 1418.67 2579.23 1418.46 2579.43 1418.25 2579.59 1417.99 2579.71 1417.67 2579.83 1417.35 2579.92 1416.97 2579.99 1416.51 2580.06 1416.05 2580.09 1415.49 2580.09 1414.81L2580.09 1393.46C2580.09 1392.68 2579.95 1392.14 2579.65 1391.82 2579.35 1391.5 2578.92 1391.34 2578.37 1391.34 2577.75 1391.34 2576.84 1391.66 2575.63 1392.29 2574.42 1392.93 2572.85 1393.87 2570.92 1395.12 2570.66 1394.67 2570.42 1394.21 2570.21 1393.75 2569.99 1393.3 2569.76 1392.83 2569.52 1392.35 2571.98 1391 2574.42 1389.66 2576.83 1388.32 2579.25 1386.98 2581.69 1385.64 2584.17 1384.31Z" fill-rule="evenodd"/><text fill="#000000" fill-opacity="0" font-family="Arial,Arial_MSFontService,sans-serif" font-size="38.3633" x="2569.52" y="1417.88">1</text><path d="M2590.36 1334.35 2592.18 1334.35C2592.14 1335.45 2592.11 1336.42 2592.09 1337.29 2592.07 1338.15 2592.06 1338.99 2592.05 1339.8 2592.04 1340.62 2592.03 1341.42 2592.03 1342.22L2592.03 1364.85C2592.03 1365.47 2592.05 1366 2592.09 1366.45 2592.13 1366.89 2592.19 1367.27 2592.28 1367.58 2592.37 1367.89 2592.49 1368.15 2592.64 1368.37 2592.79 1368.59 2592.96 1368.77 2593.16 1368.93 2593.4 1369.17 2593.72 1369.36 2594.12 1369.48 2594.51 1369.61 2595.02 1369.72 2595.63 1369.81 2596.25 1369.9 2596.99 1369.97 2597.85 1370.02 2598.72 1370.07 2599.75 1370.11 2600.97 1370.12L2600.97 1372.72 2577.35 1372.72 2577.35 1370.12C2578.52 1370.09 2579.51 1370.04 2580.32 1369.99 2581.14 1369.94 2581.83 1369.87 2582.41 1369.78 2582.99 1369.69 2583.45 1369.59 2583.79 1369.48 2584.14 1369.38 2584.45 1369.24 2584.7 1369.08 2584.98 1368.9 2585.22 1368.71 2585.42 1368.5 2585.62 1368.29 2585.78 1368.03 2585.89 1367.71 2586.01 1367.39 2586.11 1367.01 2586.18 1366.55 2586.25 1366.09 2586.28 1365.53 2586.28 1364.85L2586.28 1343.5C2586.28 1342.72 2586.13 1342.18 2585.83 1341.86 2585.54 1341.54 2585.11 1341.38 2584.55 1341.38 2583.94 1341.38 2583.03 1341.7 2581.81 1342.34 2580.6 1342.97 2579.03 1343.91 2577.11 1345.17 2576.85 1344.71 2576.61 1344.25 2576.39 1343.79 2576.17 1343.34 2575.95 1342.87 2575.71 1342.4 2578.17 1341.04 2580.61 1339.7 2583.02 1338.36 2585.43 1337.02 2587.88 1335.68 2590.36 1334.35Z" fill-rule="evenodd"/><text fill="#000000" fill-opacity="0" font-family="Arial,Arial_MSFontService,sans-serif" font-size="38.3633" x="2575.71" y="1367.92">1</text></g></svg>